# xmcd
#
# Track frame offsets: 
#        150
#        14635
#        37977
#        56810
#        86472
#        90480
#        104310
#        122305
#        151480
#
# Disc length: 2452 seconds
#
# Revision: 8
# Processed by: cddbd v1.5.2PL0 Copyright (c) Steve Scherf et al.
# Submitted via: ExactAudioCopyFreeDBPlugin 1.0
#
DISCID=64099209
DTITLE=Dan Fogelberg - The Innocent Age [CD 2] (Epic E2K 3793)
DYEAR=1981
DGENRE=Rock
TTITLE0=Stolen Moments
TTITLE1=The Lion's Share
TTITLE2=Only The Heart May Know
TTITLE3=The Reach
TTITLE4=Aireshire Lament
TTITLE5=Times Like These
TTITLE6=Hard To Say
TTITLE7=Empty Cages
TTITLE8=Ghosts
EXTD=
EXTT0=
EXTT1=
EXTT2=
EXTT3=
EXTT4=
EXTT5=
EXTT6=
EXTT7=
EXTT8=
PLAYORDER=
